<?xml version="1.0" standalone="no"?>
<!DOCTYPE svg PUBLIC "-//W3C//DTD SVG 20010904//EN"
 "http://www.w3.org/TR/2001/REC-SVG-20010904/DTD/svg10.dtd">
<svg version="1.0" xmlns="http://www.w3.org/2000/svg" width="1000pt" height="640pt" viewBox="0 0 1000 640" preserveAspectRatio="xMidYMid meet">
	<!-- kate: space-indent off;
	Copyright (c) 2015 The Bitcoin Core developers
	Copyright (c) 2011-2019 The Freicoin Developers

	This program is free software: you can redistribute it and/or modify
	it under the conjunctive terms of BOTH version 3 of the GNU Affero
	General Public License as published by the Free Software Foundation
	AND the MIT/X11 software license.

	This program is distributed in the hope that it will be useful, but
	WITHOUT ANY WARRANTY; without even the implied warranty of
	MERCHANTABILITY or FITNESS FOR A PARTICULAR PURPOSE.  See the GNU
	Affero General Public License and the MIT/X11 software license for
	more details.

	You should have received a copy of both licenses along with this
	program.  If not, see <https://www.gnu.org/licenses/> and
	<http://www.opensource.org/licenses/mit-license.php>
	-->
	<style type="text/css"><![CDATA[
		text {
			font-family: "Tuffy";
			font-size: 86px;
			fill: gray;
			text-anchor: middle;
		}
	]]></style>
	<defs>
		<linearGradient id="gradient" x1="0%" y1="0%" x2="100%" y2="100%">
			<stop offset="0%" style="stop-color:rgb(239,239,239);stop-opacity:1" />
			<stop offset="33%" style="stop-color:rgb(239,239,239);stop-opacity:1" />
			<stop offset="80%" style="stop-color:rgb(205,205,205);stop-opacity:1" />
			<stop offset="100%" style="stop-color:rgb(204,204,204);stop-opacity:1" />
		</linearGradient>
	</defs>
	<rect width="1000" height="640" style="fill:url(#gradient);stroke-width:0" />
	<g transform="translate(500,0) scale(0.9, 1)">
		<text x="0" y="114">PACKAGE_NAME</text>
	</g>
	<g transform="translate(0.000000,640.000000) scale(0.100000,-0.100000)"
	fill="#000000" stroke="none">
		<path d="M4995 3705 c-24 -23 -25 -29 -25 -165 l0 -140 -306 0 -306 0 -29 -29 c-29 -29 -29 -31 -29 -141 0 -110 0 -112 29 -141 l29 -29 306 0 306 0 0 -140 c0 -136 1 -142 25 -165 16 -17 35 -25 57 -25 29 0 72 32 306 226 180 149 274 233 278 250 13 53 -2 70 -278 299 -235 194 -277 225 -306 225 -22 0 -41 -8 -57 -25z" fixlter="url(#glow)"/>
	</g>
</svg>
